<svg xmlns="http://www.w3.org/2000/svg" width="32" height="32">
    <path style="stroke:none;fill-rule:nonzero;fill:#000;fill-opacity:0.4" d="m8 14.668 1.332-5.336h13.336L24 14.668M25.227 8a2 2 0 0 0-1.895-1.332H8.668A2 2 0 0 0 6.773 8L4 16v10.668C4 27.402 4.598 28 5.332 28h1.336C7.402 28 8 27.402 8 26.668V24h16v2.668c0 .734.598 1.332 1.332 1.332h1.336c.734 0 1.332-.598 1.332-1.332V16l-2.773-8M9.332 21.332H6.668v-2.664h2.664v2.664m16 0h-2.664v-2.664h2.664v2.664m-6.664 0h-5.336v-2.664h5.336Zm0 0"/>
</svg>
