<svg xmlns="http://www.w3.org/2000/svg" width="32" height="32">
    <path style="stroke:none;fill-rule:nonzero;fill:#FFF;fill-opacity:1" d="M22.668 6.668c1.105 0 2-.895 2-2 0-1.336-2-3.602-2-3.602s-2 2.266-2 3.602c0 1.105.89 2 2 2Zm-6.668 0c1.105 0 2-.895 2-2 0-1.336-2-3.602-2-3.602s-2 2.266-2 3.602c0 1.105.895 2 2 2Zm-6.668 0c1.11 0 2-.895 2-2 0-1.336-2-3.602-2-3.602s-2 2.266-2 3.602c0 1.105.895 2 2 2Zm15.895 4.012a1.993 1.993 0 0 0-1.895-1.348H8.668c-.883 0-1.613.563-1.895 1.348L4 18.668v10.664a1.34 1.34 0 0 0 1.332 1.336h1.336A1.34 1.34 0 0 0 8 29.332V28h16v1.332a1.34 1.34 0 0 0 1.332 1.336h1.336A1.34 1.34 0 0 0 28 29.332V18.668ZM8.668 24c-1.11 0-2-.895-2-2s.89-2 2-2a1.999 1.999 0 1 1 0 4Zm14.664 0a1.999 1.999 0 1 1 0-4c1.11 0 2 .895 2 2s-.89 2-2 2ZM6.668 17.332l2-6h14.664l2 6Zm0 0"/>
</svg>
