<svg xmlns="http://www.w3.org/2000/svg" width="32" height="32">
    <path style="stroke:none;fill-rule:nonzero;fill:#fff;fill-opacity:1" d="M16.84 2.668c7.375 0 13.348 6 13.348 13.332 0 7.332-5.973 13.332-13.348 13.332-4.68 0-8.774-2.426-11.16-6.094l2.105-1.664c1.883 3.051 5.227 5.094 9.067 5.094 5.894 0 10.668-4.777 10.668-10.668 0-5.89-4.774-10.668-10.668-10.668-5.438 0-9.918 4.082-10.57 9.336H9.96l-4.988 4.973L0 14.668h3.586c.668-6.734 6.348-12 13.254-12m3.945 10.984A1.231 1.231 0 0 1 22 14.88v6.148c0 .664-.547 1.227-1.227 1.227h-7.375c-.68 0-1.226-.563-1.226-1.227V14.88c0-.68.547-1.211 1.215-1.227V12.31a3.702 3.702 0 0 1 3.691-3.696 3.703 3.703 0 0 1 3.707 3.696v1.343m-3.707-3.172c-1 0-1.824.813-1.824 1.829v1.343h3.668V12.31a1.834 1.834 0 0 0-1.844-1.829Zm0 0"/>
</svg>
