<svg xmlns="http://www.w3.org/2000/svg" width="32" height="32">
    <path style="stroke:none;fill-rule:nonzero;fill:#FFF;fill-opacity:1" d="M5.332 5.332h8v8h-8v-8m21.336 0v8h-8v-8h8m-8 14.668h2.664v-2.668h-2.664v-2.664h2.664v2.664H24v-2.664h2.668v2.664H24V20h2.668v4H24v2.668h-2.668V24h-4v2.668h-2.664v-5.336h4V20m2.664 0v4H24v-4h-2.668m-16 6.668v-8h8v8h-8M8 8v2.668h2.668V8H8m13.332 0v2.668H24V8h-2.668M8 21.332V24h2.668v-2.668H8m-2.668-6.664H8v2.664H5.332v-2.664m6.668 0h5.332V20h-2.664v-2.668H12v-2.664M14.668 8h2.664v5.332h-2.664V8m-12-5.332V8H0V2.668A2.669 2.669 0 0 1 2.668 0H8v2.668H2.668M29.332 0A2.669 2.669 0 0 1 32 2.668V8h-2.668V2.668H24V0h5.332M2.668 24v5.332H8V32H2.668A2.669 2.669 0 0 1 0 29.332V24h2.668m26.664 5.332V24H32v5.332A2.669 2.669 0 0 1 29.332 32H24v-2.668Zm0 0"/>
</svg>
